<svg xmlns="http://www.w3.org/2000/svg" viewBox="0 0 200 200"><path fill="#231f20" d="M100 175.69A75.69 75.69 0 1 1 175.69 100 75.78 75.78 0 0 1 100 175.69m0-141.38A65.69 65.69 0 1 0 165.69 100 65.77 65.77 0 0 0 100 34.31"/><path fill="#231f20" d="M100 175.69c-19.49 0-30-39-30-75.69s10.51-75.69 30-75.69 30 39 30 75.69-10.51 75.69-30 75.69m0-141.38c-8.15 0-20 25.59-20 65.69 0 18.33 2.5 35.49 7 48.32 3.73 10.55 8.82 17.37 13 17.37 8.15 0 20-25.59 20-65.69 0-18.33-2.5-35.49-7-48.32-3.77-10.55-8.86-17.37-13-17.37"/><path fill="#231f20" d="M170.69 105H29.31a5 5 0 0 1 0-10h141.38a5 5 0 0 1 0 10m-7.64-32H37a5 5 0 0 1 0-10h126.1a5 5 0 0 1 0 10Zm0 64H37a5 5 0 0 1 0-10h126.1a5 5 0 0 1 0 10Z"/></svg>